<?xml version="1.0" standalone="yes"?>
<svg width="848" height="582">
<path style="fill:#ffffff; stroke:none;" d="M0 0L0 582L848 582L848 0L0 0z"/>
<path style="fill:#5e53ad; stroke:none;" d="M525 184C514.383 161.26 501.462 136.464 479 123.465C463.206 114.324 442.648 114.119 425 112.91C383.291 110.054 340.843 112 299 112C264.319 112 219.817 104.812 190 126.49C173.975 138.141 166.537 154.96 157.742 172C149.441 188.081 140.913 204.172 132.139 220C103.727 271.254 77.5661 323.748 49.1389 375C38.4715 394.232 28.1725 413.666 17.6914 433C12.1223 443.273 4.5296 453.846 1 465L121 465C149.649 465 179.338 466.519 207 457.656C223.322 452.426 235.922 443.303 250 434L163.576 540L131 581L170 561.309L233 528.309L376 453.691L469 405L491.219 448L500.637 463.972L515 465L550 465L686 465C681.505 450.801 670.265 436.775 662.6 424C647.654 399.089 633.146 373.912 618.2 349C612.217 339.028 606.383 328.972 600.4 319C598.274 315.457 593.673 310.272 593.593 306C593.467 299.239 605.919 288.987 610.08 284C626.25 264.621 642.595 245.388 658.753 226C701.368 174.865 744.436 124.11 787.08 73C806.835 49.324 829.604 26.4406 847 1L809 21.5787L742 59.9892L525 184z"/>
<path style="fill:#b6b2d0; stroke:none;" d="M828 15L827 18L828 15z"/>
<path style="fill:#ffffff; stroke:none;" d="M520 207C509.85 183.445 494.682 150.902 472 137.454C448.779 123.686 416.726 126.834 391 127.961C350.414 129.738 309.611 127 269 127C247.322 127 220.847 124.876 202 137.356C187.112 147.214 180.649 161.68 172.742 177C165.289 191.439 157.076 205.493 149.752 220C122.697 273.594 93.3052 326.218 64.6914 379C56.1993 394.665 47.579 410.263 39.2199 426C35.3594 433.268 29.4738 440.833 28 449L134 449C162.002 449 191.23 449.514 217 436.63C232.643 428.808 246.165 416.893 257.83 404C265.227 395.825 272.037 385.447 281 379C281.237 390.498 287.602 406.969 283.892 418C282.023 423.557 275.952 427.907 272.039 432C263.562 440.866 255.634 450.282 247 459C224.271 481.951 203.282 506.655 180.961 530C169.583 541.899 150.939 556.119 144 571L226 524.421L385 433.579L445 399.15L475 383L498.742 429L509.637 447.972L521 449L550 449L658 449L638 413L595.8 342L579.8 315L574.241 303L590.576 283L639.834 228L771.166 81L807 41L827 17L796 35.3989L725 79.5764L520 207z"/>
<path style="fill:#898989; stroke:none;" d="M811 30L812 31L811 30z"/>
<path style="fill:#5e53ad; stroke:none;" d="M515 228C509.04 214.17 500.166 201.178 492.861 188C485.17 174.126 479.156 159.254 465 150.468C435.437 132.118 389.981 142 357 142L378.691 184L427 276L471 257L247 472.985L192 525.83L156 561C167.377 558.328 179.122 548.145 189 541.95C210.63 528.384 232.296 514.872 254 501.424C329.112 454.885 402.816 403.971 480 361L507.756 415L519.39 434.397L552 435L633 435L608.6 392L563 315L520 336L586.911 266L733.015 113L779.015 65L811 31C802.061 34.3882 793.937 41.3752 786 46.6667C769.946 57.3694 754.052 68.299 738 79C687.562 112.625 637.435 146.71 587 180.333C563.742 195.839 540.232 216.064 515 228z"/>
<path style="fill:#cbc8e0; stroke:none;" d="M241 111L241 112L250 112L241 111z"/>
<path style="fill:#9c98be; stroke:none;" d="M250 111L250 112L308 112L289 111L250 111z"/>
<path style="fill:#cbc8e0; stroke:none;" d="M308 111L308 112L405 112L375 111L308 111z"/>
<path style="fill:#9c98be; stroke:none;" d="M227 112L227 113L233 113L227 112M421 112L421 113L426 113L421 112z"/>
<path style="fill:#cbc8e0; stroke:none;" d="M426 112L426 113L430 113L426 112z"/>
<path style="fill:#aaa6c8; stroke:none;" d="M221 113L221 114L224 114L221 113z"/>
<path style="fill:#cbc8e0; stroke:none;" d="M436 113L436 114L441 114L436 113z"/>
<path style="fill:#aaa6c8; stroke:none;" d="M216.667 114.333L217.333 114.667L216.667 114.333z"/>
<path style="fill:#d2cfe5; stroke:none;" d="M445 114L445 115L449 115L445 114z"/>
<path style="fill:#b6b2d0; stroke:none;" d="M212.667 115.333L213.333 115.667L212.667 115.333M452 115L452 116L455 116L452 115z"/>
<path style="fill:#cbc8e0; stroke:none;" d="M236 127L236 128L246 128L236 127M325 127L325 128L396 128L374 127L325 127M425 127L425 128L430 128L425 127z"/>
<path style="fill:#9c98be; stroke:none;" d="M430 127L430 128L434 128L430 127z"/>
<path style="fill:#d2cfe5; stroke:none;" d="M226 128L226 129L230 129L226 128z"/>
<path style="fill:#aaa6c8; stroke:none;" d="M452.667 130.333L453.333 130.667L452.667 130.333M456.667 131.333L457.333 131.667L456.667 131.333z"/>
<path style="fill:#cbc8e0; stroke:none;" d="M400 140L400 141L428 141L400 140z"/>
<path style="fill:#aea8d2; stroke:none;" d="M249 141L249 142L284 142L249 141z"/>
<path style="fill:#827bb7; stroke:none;" d="M284 141L284 142L319 142L284 141z"/>
<path style="fill:#aea8d2; stroke:none;" d="M319 141L319 142L324 142L319 141z"/>
<path style="fill:#cbc8e0; stroke:none;" d="M357 141L357 142L372 142L357 141z"/>
<path style="fill:#9c98be; stroke:none;" d="M372 141L372 142L383 142L372 141z"/>
<path style="fill:#cbc8e0; stroke:none;" d="M435 141L435 142L439 142L435 141z"/>
<path style="fill:#5e53ad; stroke:none;" d="M51 435L134 435C158.736 435 184.962 435.082 208 424.688C228.469 415.454 243.751 398.701 258.13 382C265.748 373.153 277.081 363.55 282 353L193 353C215.515 318.86 232.125 279.187 251.219 243C256.562 232.875 263.141 209.152 276 209L299 403C306.112 399.684 311.124 392.529 317 387.424C332.794 373.704 348.17 358.758 363 343.999C368.525 338.501 380.892 330.849 382.667 323C384.688 314.067 379.731 300.993 378.428 292C375.088 268.944 370.326 246.094 367.289 223C364.4 201.023 364.82 157.902 342 146.377C330.933 140.788 317.991 142 306 142L250 142C234.908 142 219.574 141.796 207 151.529C195.255 160.619 189.603 175.096 183.139 188C175.205 203.837 166.476 219.382 158.114 235C134.395 279.304 110.93 323.753 87.1134 368C75.2196 390.097 60.6921 411.843 51 435z"/>
<path style="fill:#9993c4; stroke:none;" d="M328 142L328 143L331 143L328 142z"/>
<path style="fill:#aaa6c8; stroke:none;" d="M442 142L442 143L445 143L442 142z"/>
<path style="fill:#bfbbde; stroke:none;" d="M334.667 143.333L335.333 143.667L334.667 143.333M337.667 144.333L338.333 144.667L337.667 144.333z"/>
<path style="fill:#9993c4; stroke:none;" d="M357.333 166.667L357.667 167.333L357.333 166.667z"/>
<path style="fill:#a39ecb; stroke:none;" d="M360.333 178.667L360.667 179.333L360.333 178.667M361.333 184.667L361.667 185.333L361.333 184.667z"/>
<path style="fill:#aea8d2; stroke:none;" d="M362.333 190.667L362.667 191.333L362.333 190.667z"/>
<path style="fill:#9993c4; stroke:none;" d="M364 203L364 206L365 206L364 203z"/>
<path style="fill:#aea8d2; stroke:none;" d="M365.333 209.667L365.667 210.333L365.333 209.667M276 212L276 215L277 215L276 212z"/>
<path style="fill:#b6b1d7; stroke:none;" d="M277 219L277 223L278 223L277 219z"/>
<path style="fill:#9993c4; stroke:none;" d="M367 222L367 225L368 225L367 222z"/>
<path style="fill:#908bb5; stroke:none;" d="M382 223L382 226L384 225L384 224L382 223z"/>
<path style="fill:#5e53ad; stroke:none;" d="M383 225C383.558 252.007 389.672 283.726 396 310C401.785 305.925 414.633 296.172 416.184 289C417.299 283.839 411.232 276.277 408.861 272C400.87 257.583 394.735 236.611 383 225z"/>
<path style="fill:#a39ecb; stroke:none;" d="M368.333 228.667L368.667 229.333L368.333 228.667z"/>
<path style="fill:#aea8d2; stroke:none;" d="M278 229L278 232L279 232L278 229z"/>
<path style="fill:#b6b2d0; stroke:none;" d="M383 231L383 234L384 234L383 231z"/>
<path style="fill:#aea8d2; stroke:none;" d="M369.333 234.667L369.667 235.333L369.333 234.667M279.333 238.667L279.667 239.333L279.333 238.667z"/>
<path style="fill:#c0bdd8; stroke:none;" d="M385 244L385 247L386 247L385 244z"/>
<path style="fill:#b6b1d7; stroke:none;" d="M280 245L280 249L281 249L280 245z"/>
<path style="fill:#5e53ad; stroke:none;" d="M265 247L238.691 297L218 338L276 338L268.285 272L265 247z"/>
<path style="fill:#9993c4; stroke:none;" d="M371 247L371 250L372 250L371 247z"/>
<path style="fill:#9c98be; stroke:none;" d="M266 251L266 256L267 256L266 251z"/>
<path style="fill:#aea8d2; stroke:none;" d="M372.333 253.667L372.667 254.333L372.333 253.667M281 255L281 258L282 258L281 255z"/>
<path style="fill:#d2cfe5; stroke:none;" d="M387 256L387 260L388 260L387 256z"/>
<path style="fill:#9c98be; stroke:none;" d="M267 260L267 265L268 265L267 260z"/>
<path style="fill:#aea8d2; stroke:none;" d="M282.333 264.667L282.667 265.333L282.333 264.667z"/>
<path style="fill:#9993c4; stroke:none;" d="M374 266L374 269L375 269L374 266z"/>
<path style="fill:#9c98be; stroke:none;" d="M268 269L268 274L269 274L268 269z"/>
<path style="fill:#d2cfe5; stroke:none;" d="M389 269L389 273L390 273L389 269z"/>
<path style="fill:#b6b1d7; stroke:none;" d="M283 271L283 275L284 275L283 271z"/>
<path style="fill:#a39ecb; stroke:none;" d="M375.333 272.667L375.667 273.333L375.333 272.667z"/>
<path style="fill:#b6b2d0; stroke:none;" d="M390 276L390 279L391 279L390 276z"/>
<path style="fill:#9c98be; stroke:none;" d="M269 278L269 283L270 283L269 278z"/>
<path style="fill:#aea8d2; stroke:none;" d="M284 281L284 284L285 284L284 281z"/>
<path style="fill:#9c98be; stroke:none;" d="M391.333 282.667L391.667 283.333L391.333 282.667z"/>
<path style="fill:#b6b2d0; stroke:none;" d="M417.333 288.667L417.667 289.333L417.333 288.667z"/>
<path style="fill:#c0bdd8; stroke:none;" d="M392 289L392 292L393 292L392 289z"/>
<path style="fill:#aea8d2; stroke:none;" d="M285.333 290.667L285.667 291.333L285.333 290.667z"/>
<path style="fill:#a39ecb; stroke:none;" d="M378.333 291.667L378.667 292.333L378.333 291.667z"/>
<path style="fill:#b6b1d7; stroke:none;" d="M286 297L286 301L287 301L286 297z"/>
<path style="fill:#aea8d2; stroke:none;" d="M379.333 297.667L379.667 298.333L379.333 297.667z"/>
<path style="fill:#ffffff; stroke:none;" d="M255 299L244 322L258 322L255 299z"/>
<path style="fill:#d2cfe5; stroke:none;" d="M394 301L394 305L395 305L394 301z"/>
<path style="fill:#cbc8e0; stroke:none;" d="M256 303L256 308L257 308L256 303z"/>
<path style="fill:#aea8d2; stroke:none;" d="M287 307L287 310L288 310L287 307z"/>
<path style="fill:#aaa6c8; stroke:none;" d="M395.333 308.667L395.667 309.333L395.333 308.667z"/>
<path style="fill:#9993c4; stroke:none;" d="M381 310L381 313L382 313L381 310z"/>
<path style="fill:#cbc8e0; stroke:none;" d="M257 312L257 317L258 317L257 312z"/>
<path style="fill:#aea8d2; stroke:none;" d="M288 314L288 318L289 318L288 314z"/>
<path style="fill:#a39ecb; stroke:none;" d="M382.333 316.667L382.667 317.333L382.333 316.667z"/>
<path style="fill:#9c98be; stroke:none;" d="M243 321L258 323L258 322L243 321z"/>
<path style="fill:#aea8d2; stroke:none;" d="M383.333 322.667L383.667 323.333L383.333 322.667z"/>
<path style="fill:#9c98be; stroke:none;" d="M274 323L274 327L275 327L274 323z"/>
<path style="fill:#aea8d2; stroke:none;" d="M289 324L289 327L290 327L289 324z"/>
<path style="fill:#9c98be; stroke:none;" d="M275 332L275 336L276 336L275 332z"/>
<path style="fill:#aea8d2; stroke:none;" d="M290 333L290 336L291 336L290 333M291 340L291 344L292 344L291 340M292 350L292 353L293 353L292 350M193 352L193 353L282 353L255 352L193 352M293 359L293 362L294 362L293 359z"/>
<path style="fill:#9c98be; stroke:none;" d="M478.667 361.333L479.333 361.667L478.667 361.333z"/>
<path style="fill:#aea8d2; stroke:none;" d="M294 366L294 370L295 370L294 366M295 376L295 379L296 379L295 376z"/>
<path style="fill:#9c98be; stroke:none;" d="M281 385L281 390L282 390L281 385z"/>
<path style="fill:#aea8d2; stroke:none;" d="M296 385L296 388L297 388L296 385M297 392L297 396L298 396L297 392z"/>
<path style="fill:#9c98be; stroke:none;" d="M282 394L282 399L283 399L282 394z"/>
<path style="fill:#9993c4; stroke:none;" d="M298 400L300 404L298 400z"/>
<path style="fill:#9c98be; stroke:none;" d="M283 403L283 408L284 408L283 403z"/>
<path style="fill:#bfbbde; stroke:none;" d="M190.667 430.333L191.333 430.667L190.667 430.333z"/>
<path style="fill:#aea8d2; stroke:none;" d="M185.667 431.333L186.333 431.667L185.667 431.333z"/>
<path style="fill:#cbc8e0; stroke:none;" d="M252 431L253 432L252 431z"/>
<path style="fill:#9993c4; stroke:none;" d="M179 432L179 433L182 433L179 432z"/>
<path style="fill:#d8d6ea; stroke:none;" d="M251 432L252 433L251 432z"/>
<path style="fill:#b6b1d7; stroke:none;" d="M172 433L172 434L176 434L172 433z"/>
<path style="fill:#ffffff; stroke:none;" d="M250 433L251 434L250 433z"/>
<path style="fill:#aea8d2; stroke:none;" d="M163 434L163 435L167 435L163 434z"/>
<path style="fill:#b6b2d0; stroke:none;" d="M197.667 443.333L198.333 443.667L197.667 443.333z"/>
<path style="fill:#c0bdd8; stroke:none;" d="M193.667 444.333L194.333 444.667L193.667 444.333z"/>
<path style="fill:#b6b2d0; stroke:none;" d="M189 445L189 446L192 446L189 445z"/>
<path style="fill:#c0bdd8; stroke:none;" d="M184 446L184 447L187 447L184 446z"/>
<path style="fill:#cbc8e0; stroke:none;" d="M27 448C31.7718 453.461 52.8197 450 60 450L156 450L156 449L71 449L27 448M168 448L168 449L172 449L168 448M658 448C643.854 452.181 624.757 449 610 449L510 449L510 450L623 450L650 450L658 448z"/>
<path style="fill:#9c98be; stroke:none;" d="M156 449L156 450L161 450L156 449z"/>
<path style="fill:#b6b2d0; stroke:none;" d="M185 462L185 463L188 463L185 462z"/>
<path style="fill:#cbc8e0; stroke:none;" d="M177 463L177 464L182 464L177 463z"/>
<path style="fill:#9c98be; stroke:none;" d="M165 464L165 465L169 465L165 464z"/>
<path style="fill:#cbc8e0; stroke:none;" d="M169 464L169 465L173 465L169 464z"/>
<path style="fill:#9c9c9c; stroke:none;" d="M155.667 561.333L156.333 561.667L155.667 561.333z"/>
<path style="fill:#9c98be; stroke:none;" d="M143.333 570.667L143.667 571.333L143.333 570.667z"/>
</svg>
